<?xml version="1.0" encoding="utf-8"?>
<!DOCTYPE svg PUBLIC "-//W3C//DTD SVG 1.0//EN" "http://www.w3.org/TR/2001/REC-SVG-20010904/DTD/svg10.dtd">
<svg version="1.0" xmlns="http://www.w3.org/2000/svg" width="1920px" height="1080px" viewBox="0 0 1920 1080" preserveAspectRatio="xMidYMid meet">
 <g fill="#f297a9">
  <path d="M1287.5 836.4 c-6.9 -3.5 -10.1 -9.2 -9.3 -16.2 0.2 -2 20.8 -80.2 45.7 -173.7 24.9 -93.5 47.5 -178.5 50.3 -189 2.8 -10.4 5.6 -20.1 6.3 -21.5 2.1 -4.1 5.7 -6.8 10.6 -8.1 4.4 -1.2 5 -1.1 10.3 1.5 3.1 1.5 6.4 2.5 7.3 2.2 4.8 -1.5 27.6 -2.5 35.4 -1.6 32.2 3.7 58 20.2 72.3 46.2 14.2 25.8 15 55.3 2.1 82.3 -5.1 10.7 -9.1 16.5 -17.7 25.3 -12.2 12.5 -24.4 19.5 -45.5 26.1 -14.2 4.5 -17.2 6.5 -20.4 13.6 -4.5 9.7 -0.5 19.8 9.3 24 8.4 3.5 28.2 0.5 40.8 -6.1 12.7 -6.7 20.8 -15.8 33 -37.4 6.6 -11.6 15.7 -21.3 21.5 -22.9 7.5 -2 16.1 -0.8 20.1 3 l2.4 2.3 1.9 -2.1 c2.4 -2.6 16.8 -7.8 25.7 -9.4 19.2 -3.3 37.6 3 52.3 18 5.5 5.6 13.7 17.3 16 22.9 1.5 3.7 1.8 3.7 8.5 1.7 14.1 -4.3 23.8 1.1 22.1 12.2 -2.3 15.8 -19.2 45.4 -30.3 53.4 -5.2 3.8 -10.3 4.2 -14.7 1.3 -3.6 -2.4 -8.2 -9.3 -10.9 -16.6 l-2.4 -6.3 -8.3 -0.8 c-37.7 -3.4 -62.4 -24.9 -64.6 -56.4 l-0.6 -7.1 -5.9 -0.7 c-5.1 -0.6 -6.4 -0.4 -8.7 1.2 -2.9 2.2 -8.1 9.8 -16.1 24 -7.9 14.1 -22.1 28.3 -34 34.1 -13.4 6.5 -22.3 8.6 -37 8.6 -11.4 0.1 -13 -0.1 -18 -2.5 -7.9 -3.7 -12.5 -8.1 -16.1 -15.4 -5.9 -12 -4.7 -24.5 3.3 -36.3 5.3 -7.7 9.2 -9.9 29.3 -16.2 19.4 -6.2 33.8 -16.1 44.1 -30.5 17.1 -24 18.8 -56.5 4.2 -81.3 -5 -8.7 -19.9 -23 -28.3 -27.4 -15 -7.7 -33.1 -10.8 -52.3 -8.7 -5.9 0.6 -10.9 1.3 -11 1.4 -0.4 0.3 -25.1 93.1 -79.8 299 -11.8 44.6 -22.3 82.3 -23.2 83.9 -2.1 3.6 -9.3 7.6 -13.6 7.6 -1.7 0 -4.4 -0.7 -6.1 -1.6z m10.5 -7.9 c1.7 -0.9 3 -1.7 3 -1.9 0 -0.3 3.4 -13.2 7.6 -28.8 18.1 -67.8 93.2 -350.6 93.9 -353.5 0.6 -2.8 0.2 -3.7 -2.3 -6.3 -3.6 -3.6 -7.1 -3.8 -10.6 -0.7 -2.2 1.9 -7.6 21.3 -46.6 168.2 -24.3 91.3 -47 176.9 -50.6 190.2 -3.5 13.4 -6.4 25.4 -6.4 26.8 0 3.1 4.1 7.5 7 7.5 1.2 0 3.4 -0.7 5 -1.5z m356.9 -152.8 c10 -8.1 27.1 -40.5 25.9 -48.9 -0.3 -2.1 -0.8 -2.3 -6.3 -2.3 -4.7 0 -7.5 0.8 -12.9 3.3 -3.7 1.7 -7 3.2 -7.2 3.2 -0.2 0 -0.4 -1.2 -0.4 -2.6 0 -3.7 -6.2 -15.9 -12.3 -23.9 -4.7 -6.3 -16.3 -16.5 -18.8 -16.5 -0.5 0 -0.9 1.7 -0.9 3.8 0 2.1 -0.7 6.3 -1.6 9.3 -3.9 13.4 -12.9 23.3 -27.9 30.6 -4.9 2.4 -9.4 4.8 -9.8 5.2 -2.1 2.1 11.8 9.7 23.4 13 6.2 1.7 22 4 29 4.1 1 0 1.9 1.7 2.7 4.8 2.8 10.9 9.4 21.1 12.8 19.8 0.9 -0.3 2.8 -1.6 4.3 -2.9z m-71.7 -58 c17.7 -8.7 22.5 -15.8 21.9 -32.4 l-0.1 -3.3 -5.6 0 c-11.3 0 -27.6 5.2 -32.3 10.3 -2.2 2.5 -2.3 3.2 -1.8 10.9 0.5 7.6 4.3 21.2 5.7 20.6 0.3 -0.2 5.8 -2.9 12.2 -6.1z"/>
  <path d="M1117.8 689.3 c-3.1 -6.6 -3.2 -7.1 -3.2 -20.8 0 -18.6 0.8 -36.7 1.7 -38.1 0.4 -0.7 0.9 -7.5 1.1 -15.3 0.2 -9 0.8 -14.6 1.6 -15.6 1.2 -1.4 5.2 -39.3 4.3 -40.8 -0.3 -0.4 -1 -0.3 -1.7 0.2 -0.7 0.6 -5.6 1.1 -11 1.2 -5.3 0.1 -9.9 0.6 -10.2 1 -0.3 0.5 -1.8 0.9 -3.4 0.9 -2.2 0 -2.8 0.5 -2.8 2.3 -0.1 5.8 -1.9 16.6 -2.9 17.8 -0.6 0.8 -1.4 5.2 -1.8 9.9 -0.4 4.7 -1.3 10.3 -2 12.5 -0.7 2.2 -1.6 7.3 -2 11.3 -0.4 3.9 -1.1 7.4 -1.5 7.7 -0.4 0.3 -1.1 4.4 -1.5 9.1 -0.6 7.5 -1.2 9.4 -4.2 14.1 -2.2 3.5 -4 5.3 -4.9 4.9 -0.7 -0.3 -1.9 0.3 -2.6 1.2 -2.1 2.7 -5.5 4.3 -10.6 4.8 -4.7 0.6 -4.7 0.6 -7.8 -4.3 -5.2 -7.9 -6 -16.6 -3.4 -39.7 1.1 -10.4 1.8 -19.1 1.6 -19.3 -0.4 -0.4 -3.1 3.4 -5.2 7.2 -0.6 1.1 -2 2.4 -3.2 3 -1.2 0.5 -2.2 1.5 -2.2 2.2 0 0.7 -1.5 3 -3.4 5 -1.8 2.1 -3.6 4.8 -4 5.9 -0.4 1.2 -2.3 3.3 -4.4 4.7 -2 1.3 -7.5 6.1 -12.1 10.5 -6.2 6 -9.4 8.3 -12.5 9.1 -2.2 0.5 -6.8 2.4 -10 4.1 -3.5 1.8 -7.5 3 -9.7 3 -2.1 0 -4.1 0.5 -4.4 1 -0.3 0.6 -3 1 -6 1 -3 0 -5.7 0.5 -6 1 -0.3 0.6 -4.2 1 -8.6 1 -4.6 0 -7.9 -0.4 -7.9 -1 0 -0.5 -1.5 -1 -3.4 -1 -1.9 0 -3.8 -0.4 -4.1 -1 -0.3 -0.5 -1.7 -1 -3 -1 -4.2 0 -11.8 -5.5 -16.7 -12.2 -1.6 -2 -2.8 -4.1 -2.8 -4.7 0 -0.6 -0.6 -2.5 -1.4 -4.3 -0.8 -1.8 -2.3 -5.5 -3.5 -8.3 -1.4 -3.4 -2.3 -8.1 -2.6 -14.5 -0.3 -5.2 -0.9 -9.8 -1.4 -10.3 -0.5 -0.5 -0.3 -3.3 0.4 -6.5 0.8 -3.3 1 -6.3 0.5 -7.2 -0.5 -1 -0.1 -4.9 1.1 -9.8 1.3 -5.7 1.6 -8.9 0.9 -10.1 -1.2 -2.3 3.6 -28.8 5.6 -31.2 0.8 -0.8 2.1 -5.6 3 -10.5 0.9 -4.9 2 -9.1 2.4 -9.4 1.5 -1.1 2.8 -4.7 3.5 -9.7 0.4 -2.9 1.3 -5.7 2 -6.3 0.8 -0.6 1.7 -2.6 2.1 -4.3 0.3 -1.8 2.2 -6 4 -9.5 1.9 -3.4 3.4 -6.9 3.4 -7.6 0 -0.7 1.4 -3 3 -5.1 1.7 -2.1 3 -4.2 3 -4.8 0 -1.3 7 -12 8.5 -12.9 0.6 -0.4 2.9 -3.5 5 -7 5.8 -9.3 12.2 -17.3 15.3 -18.9 1.5 -0.7 4.8 -3.2 7.3 -5.4 2.8 -2.4 6.5 -4.5 9.5 -5.3 2.7 -0.7 6.8 -2.2 9.2 -3.3 5.9 -2.6 17.4 -2.6 23.7 0.1 2.6 1.1 5.8 2 7.1 2 1.6 0 2.8 0.8 3.6 2.5 0.8 1.7 1.9 2.5 3.7 2.5 2.6 0 6.1 4 6.1 7 0 0.7 0.9 2.4 2 4 1.3 1.9 2 4.6 2.1 8.6 0.2 3.6 0.8 6.6 1.7 7.7 1.4 1.6 1.4 2.8 -0.2 11.2 -1 5.2 -2.4 9.9 -3.1 10.5 -0.7 0.6 -1.5 2.5 -1.9 4.2 -0.8 4.2 -3.3 6.8 -6.5 6.8 -2 -0.1 -3.6 -1.5 -7.1 -6.4 l-4.4 -6.4 -0.2 -13.9 c-0.1 -14.4 -0.9 -17.7 -4.4 -18.8 -1.1 -0.3 -2 -1.1 -2 -1.6 0 -1.7 -4 -0.9 -7.9 1.5 -2.4 1.6 -5.1 4.7 -7.2 8.3 -1.8 3.2 -4.3 7.2 -5.6 8.9 -1.3 1.7 -2.3 3.8 -2.3 4.7 0 1 -0.9 2.6 -2 3.7 -1.1 1.1 -2 3.2 -2 4.8 0 1.5 -0.6 3.6 -1.3 4.7 -0.8 1.1 -2.4 5.4 -3.8 9.5 -1.3 4.1 -3.1 8.6 -4 10 -1 1.4 -2 4.3 -2.4 6.5 -0.4 2.2 -1.1 4.3 -1.7 4.6 -0.5 0.4 -2.9 8.1 -5.2 17.2 -2.4 9.2 -4.9 17.3 -5.6 18.2 -0.7 0.8 -1 2.1 -0.7 2.9 0.3 0.7 0.1 1.8 -0.5 2.4 -0.6 0.6 -1.3 4.1 -1.6 7.9 -0.3 3.7 -1.1 7.7 -1.7 8.8 -0.7 1.1 -1.8 5.2 -2.5 9 -0.7 3.9 -1.7 7.5 -2.2 8.2 -1.2 1.5 -1.6 13.8 -0.7 17.4 0.4 1.5 0.3 3.1 -0.3 3.7 -1.2 1.2 -1.4 12.8 -0.3 24.2 0.7 7.3 1.2 9 3.6 11.8 1.6 1.8 2.9 4.2 2.9 5.2 0 1.5 0.7 2 2.7 2 1.4 0 3.4 0.7 4.3 1.5 1.5 1.4 2.1 1.4 4.6 0.1 1.6 -0.8 4.7 -1.9 6.9 -2.5 6.1 -1.6 16.9 -9 27.9 -19.3 14.2 -13.3 17.6 -16.7 22.1 -22.2 7.3 -9.1 11.6 -12.8 14.2 -12.3 3.3 0.6 4 -0.8 4.9 -9.3 0.4 -4.1 1.1 -8.6 1.6 -10 0.6 -1.4 1.4 -4.7 1.8 -7.5 1.5 -8.7 3 -14.8 3.9 -15.9 0.5 -0.6 1.1 -2.7 1.4 -4.6 2.2 -13.2 2.9 -16.7 3.7 -18.2 0.6 -1 1 -3.2 1 -5 0.1 -1.8 0.7 -5.1 1.5 -7.3 0.8 -2.2 1.5 -5.4 1.5 -7.1 0 -1.8 0.7 -4.5 1.5 -6 0.8 -1.6 1.5 -4.2 1.5 -5.9 0 -1.6 0.7 -5.2 1.5 -7.9 0.8 -2.7 1.5 -6.8 1.5 -9.2 0 -2.4 0.4 -4.5 0.9 -4.8 0.5 -0.3 1.7 -3.5 2.7 -7.1 1.8 -7.1 4 -9.5 8.4 -9.5 1.5 0 3.5 0.7 4.6 1.5 1 0.8 2.5 1.5 3.2 1.5 0.7 0 2.8 1.6 4.6 3.5 l3.3 3.4 -0.4 18.8 c-0.4 24.2 -0.9 33.8 -1.8 35.3 -0.4 0.6 -0.4 2.3 -0.1 3.7 0.4 1.3 0.2 3 -0.3 3.7 -0.6 0.6 -1.3 5.3 -1.7 10.4 l-0.7 9.2 8.5 0 c4.6 0 8.9 0.5 9.5 1.1 0.5 0.5 3 0.9 5.4 0.7 3.8 -0.3 4.4 -0.6 4.7 -2.8 0.2 -1.4 0.7 -3.4 1.2 -4.5 0.5 -1.1 1.2 -4.6 1.5 -7.7 0.4 -3.2 1.1 -6 1.6 -6.3 0.5 -0.4 0.9 -3.7 0.9 -7.4 0 -4.7 0.4 -7.2 1.4 -8 0.9 -0.7 1.7 -4.2 2.1 -8.7 0.4 -4.1 1.1 -7.7 1.6 -8 0.5 -0.3 0.9 -2 0.9 -3.8 0 -3.4 2.4 -12.6 4.1 -15.8 0.5 -1 0.9 -3 0.9 -4.6 0 -1.5 0.4 -3.2 0.9 -3.8 0.6 -0.5 1.4 -2.7 1.9 -4.9 1.1 -4.6 6 -19.2 7.3 -21.7 0.5 -1 0.9 -2.8 0.9 -4.1 0 -1.3 0.5 -2.8 1.1 -3.4 0.6 -0.6 1.2 -3.6 1.3 -6.7 0.1 -4.5 0.4 -5.6 1.8 -5.6 0.9 0 2 0.5 2.3 1 0.3 0.6 1.7 1 2.9 1 1.3 0 3.5 0.9 4.9 2 1.4 1.1 2.8 2 3.2 2 1.7 0 9.5 7.4 10.8 10.3 0.9 1.8 1.6 5.7 1.5 8.7 -0.3 39.1 -1.2 54.6 -3.3 57 -0.7 0.9 -1.9 8.3 -2.9 17.9 -0.8 9 -2 16.8 -2.5 17.5 -0.5 0.6 -1.2 5.7 -1.6 11.3 -0.5 6.8 -1.2 10.6 -2.1 11.4 -0.9 0.7 -1.4 3.1 -1.4 6.4 0 2.8 -0.3 5.5 -0.7 5.9 -0.5 0.4 -0.9 1.7 -1 2.9 -1.1 10.8 -2.2 17.6 -3.1 19.9 -0.6 1.5 -1.1 4 -1 5.5 0.1 4 -1.3 13.6 -2.2 14.8 -0.4 0.6 -1.1 3.6 -1.4 6.7 -0.4 3.2 -1.2 6 -1.7 6.3 -0.5 0.4 -0.9 2 -0.9 3.7 0 4.9 -3 19.5 -4.6 22.6 -0.7 1.5 -1.4 3.3 -1.4 4.1 0 1.7 -1.9 7.8 -3.1 10.3 -0.5 0.9 -0.6 3.1 -0.3 4.8 0.4 1.6 0.2 3.6 -0.3 4.2 -0.6 0.7 -1.3 4 -1.6 7.2 -0.5 4.6 -1.1 6.4 -3 8 -1.4 1.2 -2.7 2.9 -3 3.8 -0.9 2.6 -12 7.8 -16.7 7.8 -3.9 0 -4 -0.1 -7.2 -6.7z"/>
  <path d="M840.5 672 c-0.3 -0.5 -1.6 -1 -2.8 -1 -3.5 0 -6.7 -6.1 -8.3 -15.9 -0.8 -4.7 -1.5 -10.2 -1.4 -12.1 0 -7.3 3.1 -40.7 4.1 -44.2 0.5 -2 1.4 -8.5 2 -14.4 0.5 -5.9 1.3 -11.3 1.8 -11.8 0.5 -0.6 1.1 -5.1 1.5 -10 0.3 -4.9 1.1 -9.5 1.7 -10.2 0.6 -0.7 1.4 -5.4 1.9 -10.5 0.5 -5 1.3 -9.6 1.9 -10.2 0.6 -0.6 1.1 -3.2 1.1 -5.8 0 -2.6 0.7 -6 1.5 -7.5 0.8 -1.6 1.5 -5.2 1.5 -8.1 0 -2.8 0.4 -5.4 0.9 -5.8 0.5 -0.3 1.2 -3.6 1.6 -7.3 0.3 -3.7 1.1 -7.8 1.7 -9.2 0.7 -1.4 1.5 -5.2 1.9 -8.5 0.9 -7.1 3.2 -18.2 4.3 -21 0.5 -1.1 1.5 -3.5 2.3 -5.3 0.8 -1.8 1.2 -3.6 0.9 -4 -0.2 -0.4 -8.4 -0.8 -18.3 -1 -9.8 -0.2 -18.2 -0.8 -18.8 -1.3 -0.5 -0.5 -4.6 -0.9 -9.1 -0.9 -4.6 0 -8.6 -0.4 -8.9 -1 -0.3 -0.5 -2.7 -1 -5.2 -1 -2.9 0 -5.3 -0.6 -6.5 -1.6 -1.7 -1.6 -1.9 -1.5 -3.9 1 -1.9 2.4 -2.6 2.6 -9.6 2.6 -5.5 0 -8.1 0.4 -9.3 1.5 -1.2 1.1 -4.2 1.6 -9.3 1.8 -4.1 0.1 -7.9 0.5 -8.3 1 -0.4 0.4 -4.6 0.7 -9.3 0.7 -7.4 0.1 -9.2 0.4 -12.6 2.5 -2.2 1.4 -5.2 2.5 -6.7 2.5 -3.1 0 -7 1.5 -11 4.3 -2 1.3 -2.8 2.7 -2.8 4.7 0 1.6 -0.4 3.2 -1 3.5 -0.5 0.3 -1 4.1 -1 8.4 0 5.8 -0.4 8.2 -1.5 9.1 -0.9 0.7 -1.5 2.9 -1.5 5.1 0 2.1 -0.4 4 -0.9 4.3 -0.4 0.3 -1.1 3 -1.4 6.1 -0.3 3 -1.5 7.2 -2.7 9.3 -1.5 2.7 -2 5.1 -1.8 8.2 0.3 4.2 0.5 4.5 3.4 4.8 1.9 0.2 3.6 -0.3 4.4 -1.2 0.7 -1 2.8 -1.6 5.1 -1.6 2.1 0 4.1 -0.4 4.4 -1 0.3 -0.5 2.6 -1 4.9 -1 2.7 0 4.8 -0.6 5.6 -1.5 0.8 -1 3.1 -1.5 6.6 -1.5 2.9 0 5.6 -0.4 5.9 -1 0.8 -1.3 20.2 -1.3 21 0 0.3 0.6 1.6 1 2.8 1 4.3 0 6.7 2.7 6.7 7.6 0 4.2 -0.1 4.4 -3 4.4 -2 0 -3.5 0.8 -4.6 2.5 -1.5 2.3 -2.3 2.5 -8.5 2.5 -3.7 0 -7.1 0.5 -7.4 1 -0.3 0.6 -2.6 1 -4.9 1 -2.4 0 -4.9 0.6 -5.5 1.4 -0.6 0.7 -4.6 2.1 -8.8 3.1 -4.3 1 -9.5 2.6 -11.5 3.6 -2.1 1.1 -5.3 1.9 -7.1 1.9 -1.9 0 -4 0.7 -4.7 1.5 -0.7 0.8 -2.3 1.5 -3.7 1.5 -2.6 0 -12.8 6.6 -13.7 8.8 -0.3 0.7 -0.2 2.2 0.4 3.1 0.9 1.8 0 6 -2.1 10.3 -0.5 1 -0.9 4 -0.9 6.7 0 3.1 -0.5 5.3 -1.5 6.1 -1 0.8 -1.5 3.1 -1.5 6.6 0 2.9 -0.5 5.6 -1 5.9 -0.7 0.4 -0.7 1.2 0 2.5 0.7 1.3 0.7 2.1 0 2.5 -1.2 0.8 -1.3 6.2 -0.1 6.9 1.5 1 1.8 6.6 0.4 7.7 -0.9 0.8 -1.3 3.8 -1.3 9.7 0 6.5 -0.4 9 -1.7 10.4 -1.5 1.7 -1.2 1.8 8 1.8 5.3 0 9.9 -0.4 10.2 -1 0.3 -0.5 1.6 -1 2.9 -1 1.2 0 4.5 -1.1 7.2 -2.5 2.7 -1.4 5.5 -2.5 6.3 -2.5 0.7 0 4.2 -1.6 7.8 -3.5 3.6 -1.9 7.4 -3.5 8.5 -3.5 1.1 0 3.2 -0.8 4.6 -1.9 4.1 -2.8 12.1 -6.1 13.6 -5.5 0.7 0.3 1.9 -0.2 2.6 -1.1 1.8 -2.1 8.3 -2 10.3 0.3 1 1 1.7 2.7 1.7 3.8 0 2.8 -9.4 11.4 -12.4 11.4 -1.3 0 -2.9 0.7 -3.7 1.6 -0.7 0.9 -3.8 2.8 -6.9 4.4 -3.1 1.6 -6.2 3.5 -6.9 4.4 -0.8 0.9 -1.9 1.6 -2.5 1.6 -0.7 0 -2.3 1.1 -3.6 2.5 -1.3 1.4 -3.4 2.5 -4.6 2.5 -1.3 0 -5.2 1.6 -8.7 3.5 -3.5 1.9 -7 3.5 -7.8 3.5 -0.8 0 -3.6 1.1 -6.4 2.5 -2.7 1.3 -6.6 2.5 -8.6 2.5 -2 0 -4.2 0.6 -4.8 1.4 -1 1.2 -1.6 1.2 -3.9 0.1 -1.5 -0.7 -4.9 -1.8 -7.7 -2.5 -6.2 -1.4 -12.7 -4.4 -15 -7 -1 -1.1 -2.3 -2 -2.9 -2 -1.6 0 -9.6 -8.2 -9.6 -9.8 0 -0.7 -1.1 -2.2 -2.5 -3.4 -2.1 -1.8 -2.5 -3.1 -2.5 -7.4 0 -2.9 -0.4 -5.6 -1 -5.9 -1.4 -0.8 -1.4 -51.2 0 -52 0.6 -0.3 1 -4.5 1 -9.3 0.1 -6.1 0.5 -9.3 1.5 -10.6 0.8 -1.1 1.5 -4.1 1.5 -6.7 0 -2.6 0.5 -5.1 1 -5.4 0.5 -0.3 1 -3 1 -5.9 0 -3.5 0.5 -5.8 1.5 -6.6 0.8 -0.7 1.5 -2 1.5 -2.9 0 -0.9 1.2 -4.7 2.5 -8.6 1.4 -3.8 2.5 -8.2 2.5 -9.7 0 -1.5 0.5 -3 1 -3.3 0.6 -0.3 1 -1.9 1 -3.5 0 -1.6 0.5 -3.2 1 -3.5 0.6 -0.3 1 -2.2 1 -4.2 0 -2.1 1.2 -5.7 2.9 -8.7 1.6 -2.8 4.1 -8.9 5.6 -13.6 3 -9 6.8 -17.5 8.5 -18.5 2 -1.2 1.1 -9.1 -1.5 -12.9 -3.4 -4.9 -3.2 -7 1 -10.2 1.9 -1.4 3.5 -3.2 3.5 -3.8 0 -0.7 1.1 -2.3 2.5 -3.6 l2.5 -2.3 5 2.3 c2.8 1.3 5.6 3 6.2 3.7 0.6 0.7 1.9 1.3 2.9 1.3 1.1 0 2.8 0.9 3.9 2 1.9 1.9 3.3 2.1 12.8 2.1 28.4 -0.1 72.9 0.5 74.2 0.9 1.1 0.4 1.6 -0.5 1.8 -3.7 0.3 -3.4 0.7 -4.3 2.2 -4.3 1 0 2.1 -0.4 2.4 -0.8 0.5 -0.8 47.7 -0.6 67.1 0.4 6.6 0.3 28.9 0.6 49.5 0.7 l37.6 0.2 3.1 2.5 c1.8 1.4 3.2 3.5 3.2 4.7 0.1 1.2 0.5 2.4 1 2.7 1.1 0.7 0.2 13.4 -1.1 15.9 -0.8 1.5 -1.9 1.8 -5.6 1.6 -2.6 -0.1 -6 0.1 -7.5 0.6 -1.8 0.5 -3.3 0.3 -4 -0.4 -0.7 -0.7 -6.9 -1.1 -18.7 -1.1 -18.1 0.1 -21 0.7 -21 4.4 0 0.9 -0.4 2.5 -1 3.6 -0.5 1.1 -1.4 2.9 -2 4 -0.5 1.1 -1 3.3 -1 5 0 1.8 -0.6 3.3 -1.5 3.6 -1 0.4 -1.5 2.1 -1.5 5.3 0 2.6 -0.4 5.1 -1 5.7 -0.5 0.5 -1.2 5.4 -1.5 10.9 -0.8 14.6 -1.3 18.4 -3 21.7 -0.8 1.7 -1.3 3.3 -1.1 3.7 0.7 1.1 -1.4 18.4 -2.4 19.6 -0.5 0.6 -1.4 5.9 -1.9 11.8 -0.6 5.9 -1.5 11.5 -2 12.5 -0.5 0.9 -1.2 5.6 -1.6 10.5 -0.4 4.8 -1.1 8.9 -1.5 9.2 -0.5 0.3 -1.1 4.4 -1.5 9.3 -0.4 4.8 -1.1 8.9 -1.4 9.2 -0.9 0.6 -3.3 9.9 -3.2 12.5 0.2 8.2 -0.2 13.1 -1 14.1 -0.5 0.6 -1.4 6.3 -2 12.5 -0.5 6.3 -1.4 12.3 -1.9 13.4 -0.5 1.1 -1.1 3.8 -1.5 6 -0.7 4.4 -5.7 10.5 -8.6 10.5 -0.9 0 -2.2 0.7 -3 1.6 -1.4 1.7 -6.2 4.4 -7.8 4.4 -0.5 0 -1.3 -0.4 -1.6 -1z"/>
  <path d="M1231.5 660.2 c-0.6 -0.5 -3.8 -1.4 -7.3 -2.1 -6.2 -1.2 -12.1 -4 -15.4 -7.3 -1 -1 -2.5 -1.8 -3.3 -1.8 -0.8 0 -3.2 -2.4 -5.4 -5.2 -2.2 -2.9 -5.1 -6.4 -6.5 -7.8 -3.2 -3.2 -3.6 -7.7 -4.2 -38.9 -0.3 -16.1 -0.1 -24.8 0.6 -25.5 0.5 -0.5 1 -5.1 1 -10.2 0 -6.9 0.4 -9.5 1.5 -10.4 1 -0.8 1.5 -3.1 1.5 -6.6 0 -2.9 0.5 -5.6 1 -5.9 0.6 -0.3 1 -2.8 1 -5.4 0 -3.1 0.5 -5.3 1.5 -6.1 0.8 -0.7 1.5 -2.1 1.5 -3.1 0 -1 0.6 -3.3 1.4 -5.1 2.4 -5.7 3.6 -10.3 3.6 -13.6 0 -1.7 0.5 -3.4 1 -3.7 0.6 -0.3 1 -1.9 1 -3.4 0 -1.6 0.7 -3.4 1.5 -4.1 0.8 -0.7 1.5 -2.8 1.5 -4.7 0 -1.8 1.3 -5.9 2.9 -9.1 1.6 -3.1 3.8 -8.8 5 -12.6 1.2 -3.8 3.7 -9.9 5.6 -13.5 4.2 -7.8 4.4 -11.9 0.9 -17.8 -2.8 -4.9 -2.6 -7.5 1.1 -9.9 1.3 -0.9 3.3 -3.1 4.4 -5 1.1 -1.9 2.7 -3.7 3.5 -4 1.7 -0.6 9.7 2.9 11.6 5.1 0.7 0.8 2 1.5 3 1.5 0.9 0 2.9 0.9 4.3 2 2.9 2.3 -1.9 2.2 53.8 2 l30.7 -0.2 4.1 2.6 c3.2 2.1 4.1 3.2 4.1 5.4 0 1.5 0.5 3.3 1.2 4 0.9 0.9 0.9 1.2 -0.3 1.2 -0.9 0 -2.6 1.1 -3.9 2.5 -2.1 2.2 -3.1 2.5 -9.8 2.5 -5.3 0 -8 0.4 -9.2 1.5 -1.6 1.4 -3.6 1.7 -27 3.3 -7.6 0.6 -10.1 1.2 -12.7 3 -1.7 1.2 -4.5 2.2 -6.2 2.2 -3.8 0 -12.6 4.3 -13.5 6.5 -0.3 0.9 -0.6 2.8 -0.6 4.1 0 1.3 -0.4 2.4 -1 2.4 -0.6 0 -1 3.3 -1 7.9 0 4.4 -0.4 8.3 -1 8.6 -0.5 0.3 -1 2.6 -1 4.9 0 2.7 -0.6 4.8 -1.5 5.6 -0.9 0.7 -1.5 2.9 -1.5 5.5 0 2.6 -1 6 -2.6 9 -1.8 3.4 -2.4 6 -2.2 8.9 0.3 3.8 0.5 4.1 3.4 4.4 1.9 0.2 3.8 -0.3 4.7 -1.2 0.9 -0.9 3.3 -1.6 5.6 -1.6 2.2 0 4.3 -0.4 4.6 -1 0.3 -0.5 2.3 -1 4.4 -1 2.2 0 4.4 -0.6 5.1 -1.5 0.8 -1 3.1 -1.5 6.6 -1.5 2.9 0 5.6 -0.4 5.9 -1 0.8 -1.3 20.2 -1.3 21 0 0.3 0.5 1.7 1 2.9 1 1.3 0 3.5 1 5 2.1 2.2 1.7 2.7 2.8 2.4 5.8 -0.3 3.2 -0.6 3.6 -3.5 3.9 -2 0.2 -3.7 1.2 -4.7 2.8 -1.5 2.2 -2.3 2.4 -8.6 2.4 -3.8 0 -7.2 0.5 -7.5 1 -0.3 0.6 -2.2 1 -4.1 1 -1.9 0 -4.5 0.6 -5.7 1.4 -1.2 0.8 -5.9 2.3 -10.4 3.4 -4.5 1.1 -9.5 2.8 -11.2 3.6 -1.6 0.9 -4.5 1.6 -6.4 1.6 -1.9 0 -4 0.7 -4.7 1.5 -0.7 0.8 -2.3 1.5 -3.7 1.5 -1.3 0 -4.8 1.8 -7.8 4 l-5.3 3.9 0 5.5 c0 3.5 -0.5 6.5 -1.6 8 -0.9 1.5 -1.6 4.6 -1.6 7.5 0 2.7 -0.4 5.3 -1 5.6 -0.5 0.3 -1 3 -1 6 0 3 -0.5 5.7 -1.1 6.1 -0.6 0.3 -0.9 1.5 -0.6 2.5 0.3 1.1 0 3.3 -0.6 4.9 -0.9 2.5 -0.8 3.5 0.6 5.9 2.1 3.6 2.2 5.5 0.2 7.1 -1.1 0.9 -1.5 3.4 -1.5 10.1 0 6.6 -0.4 9.1 -1.6 10.3 -1.4 1.5 -0.7 1.6 7.2 1.6 9.1 0 12.3 -0.7 21.2 -4.7 2.9 -1.2 5.8 -2.3 6.5 -2.3 0.6 0 4.1 -1.6 7.7 -3.5 3.5 -1.9 7.4 -3.5 8.6 -3.5 1.2 0 3.2 -0.9 4.6 -2 3 -2.3 12.6 -6.2 13.8 -5.5 0.4 0.3 1.3 -0.2 2 -1 1.8 -2.1 8.3 -1.9 10.3 0.3 1 1 1.7 2.7 1.7 3.8 0 2.7 -9 11.4 -11.7 11.4 -1.2 0 -3 0.8 -4 1.9 -1 1 -4 2.9 -6.8 4.1 -4.7 2.1 -6.2 3.1 -13.4 8.8 -1.6 1.2 -3.7 2.2 -4.7 2.2 -0.9 0 -4.6 1.6 -8.1 3.5 -3.5 1.9 -7.1 3.5 -8.1 3.5 -0.9 0 -3.9 1.1 -6.6 2.5 -2.7 1.4 -6.6 2.5 -8.7 2.5 -2.1 0 -4.1 0.5 -4.4 1 -0.7 1.2 -2.8 1.3 -4 0.2z"/>
  <path d="M511 653 c-1.1 -2.1 -2 -5.3 -2 -6.9 0 -1.6 -0.4 -3.3 -1 -3.6 -0.6 -0.4 -1 -8.7 -1 -21.5 0 -12.8 0.4 -21.1 1 -21.5 0.6 -0.3 1 -4.6 1 -9.4 0 -6.7 0.4 -9.2 1.5 -10.1 1 -0.8 1.5 -3.1 1.5 -7.1 0 -3.3 0.4 -5.9 1 -5.9 0.6 0 1 -2.2 1 -4.9 0 -2.8 0.5 -5.3 1 -5.6 0.6 -0.3 1 -2.1 1 -4 0 -1.9 0.5 -3.7 1 -4 0.6 -0.3 1 -3 1 -5.9 0 -3 0.7 -7.2 1.5 -9.5 0.8 -2.3 1.7 -6.5 2.1 -9.3 0.4 -2.8 1.3 -6.3 2 -7.7 1.8 -3.3 1.8 -5.8 0 -6.8 -1.8 -1.1 -4.9 -7.3 -3.6 -7.3 0.6 0 1.9 0.5 3 1.2 1.5 1 2.3 0.9 3.9 -0.6 1.2 -1.1 2.1 -3 2.1 -4.4 0 -2.4 3.4 -14.1 5.1 -17.4 0.5 -1 0.9 -2.6 0.9 -3.7 0 -1 0.7 -2.4 1.5 -3.1 0.8 -0.7 1.5 -2.5 1.5 -4.1 0 -1.5 0.4 -3.8 0.9 -5.1 1.6 -3.8 4.8 -15 5.5 -19 l0.7 -3.8 -11.5 0 c-6.6 0 -11.7 0.4 -12.1 1 -1 1.6 -11.8 1.2 -15.4 -0.6 -1.7 -0.9 -3.8 -2.8 -4.6 -4.4 -2.4 -4.6 -4.6 -12 -4 -13 0.3 -0.6 3.4 -1 6.9 -1 3.4 0 6.6 -0.4 7.1 -0.9 1.3 -1.2 9.7 -2.1 25.2 -2.7 8.9 -0.4 12.5 -0.9 13.3 -2 0.9 -1 3.3 -1.4 8.1 -1.4 3.9 0 6.9 -0.4 6.9 -1 0 -0.6 2.9 -1 6.8 -1 3.7 0 7.2 -0.4 7.7 -0.9 0.6 -0.6 8.9 -1.1 18.5 -1.2 9.6 -0.1 18 -0.5 18.7 -1.1 0.6 -0.5 7 -0.7 15 -0.4 28.5 1 41.8 1.6 43.1 2.1 1.9 0.7 1.4 4.3 -0.8 5 -1.1 0.3 -2 1.3 -2 2.2 0 0.8 -0.9 1.7 -2 2 -1.1 0.3 -2 1.1 -2 1.8 0 2.1 -7.9 8.3 -11.4 9.1 -1.7 0.3 -3.5 1 -4.1 1.4 -1.2 1 -14.2 1.9 -42 2.9 -11.5 0.4 -22 1.1 -23.2 1.5 -2.4 0.9 -3 3.5 -1.2 5.3 1.4 1.4 1.3 25.3 -0.1 26.7 -0.5 0.5 -1 4.5 -1 8.7 0 4.3 -0.4 8.1 -1 8.4 -0.5 0.3 -1 2.1 -1 3.9 0 1.7 -0.5 3.7 -1.1 4.3 -2.8 2.8 0.5 3.3 23.9 3.3 18.7 -0.1 24.1 -0.4 25.5 -1.5 1.1 -0.7 2.5 -1.1 3.2 -0.9 0.7 0.3 1.6 0.1 2 -0.5 1 -1.7 2.5 -1.3 2.5 0.7 0 1.1 -0.8 2.6 -1.8 3.6 -1.1 0.9 -2.4 3.4 -3.1 5.5 -0.6 2.1 -1.7 4.4 -2.5 5 -1.6 1.4 -24.7 3.6 -34.2 3.3 -5.4 -0.2 -7.4 0.1 -8.4 1.3 -0.9 1 -3.1 1.5 -7.2 1.5 -3.8 0 -6 0.4 -6.3 1.3 -0.2 0.6 -1.3 6.3 -2.4 12.5 -1.1 6.6 -2.6 12.1 -3.5 13.1 -0.9 1 -1.6 2.5 -1.6 3.3 0 0.9 -0.6 2.9 -1.4 4.5 -0.8 1.5 -2 5.5 -2.7 8.8 -0.7 3.3 -1.7 6.6 -2.2 7.3 -0.6 0.8 -0.5 1.7 0.2 2.6 0.8 1 0.9 1.6 0.1 2.1 -0.5 0.3 -1 2.1 -1 4 0 1.9 -0.4 3.7 -1 4 -0.5 0.3 -1 2.4 -1 4.5 0 2.1 -0.4 4.2 -1 4.5 -0.5 0.3 -1 2.6 -1 5 0 2.4 -0.4 4.7 -1 5 -0.5 0.3 -1 2.1 -1 3.9 0 1.7 -0.4 3.6 -0.9 4.2 -0.9 0.8 -1.3 3.8 -2.6 18.7 -0.3 3.3 -1.4 8 -2.5 10.5 -3.4 7.7 -11.8 15.2 -17 15.2 -1.1 0 -2 0.5 -2 1 0 0.6 -2.2 1 -4.9 1 -2.8 0 -5.3 0.5 -5.6 1 -0.3 0.6 -1.9 1 -3.5 1 -2.4 0 -3.3 -0.7 -5 -4z"/>
 </g>
 <g fill="#0777d9">
  <path d="M1072.2 371.3 c-6.6 -2 -14.6 -8.9 -16.3 -14.1 -4.1 -12.3 2.4 -25.8 15 -31.6 7.2 -3.2 19.8 -2.9 27.3 0.6 l5.7 2.6 1.9 -5.1 c1 -2.9 4.3 -12.1 7.2 -20.5 l5.3 -15.2 -3.9 -3.5 c-6.5 -5.8 -11.6 -7.8 -18.4 -7.3 -4.5 0.3 -6.6 1.1 -9.5 3.4 -6.5 5.1 -8.5 5.9 -11.4 4.3 -3.4 -1.9 -5.6 -6 -4.8 -9 0.9 -3.7 7.5 -9.8 13.2 -12.5 12.4 -5.8 27.2 -3.6 38.4 5.7 l3.4 2.8 3.9 -4 c5.8 -6 12.8 -8.9 21.3 -8.9 5.4 0 7.9 0.5 11 2.3 14.6 8.3 13.9 32.2 -1.3 41.8 -7.7 4.9 -17.3 4.8 -23.6 -0.2 -1.5 -1.2 -2.8 -2 -3 -1.8 -0.1 0.2 -3.2 9 -6.9 19.5 l-6.5 19.1 4.6 4.6 c6.2 6 10 7.7 16.7 7.7 9.7 0 15.8 -4.5 21.4 -15.7 3.2 -6.5 5.3 -8.3 9.4 -8.3 2.8 0 6.7 3.8 6.7 6.5 0 1 -1.8 5.5 -4 10 -3 6.3 -5.4 9.6 -10.4 14.2 -8.2 7.7 -14.8 10.4 -25.4 10.4 -9 0 -15.3 -2.1 -22.1 -7.2 l-4.9 -3.7 -3.8 4 c-8.8 9 -24.1 12.8 -36.2 9.1z m14.5 -14.4 c3.6 -1.3 8.8 -6.4 10.4 -10 1.4 -3.5 0.5 -4.9 -4.5 -7.3 -9.2 -4.3 -18.6 0.7 -18.6 10 0 6.8 5.6 10 12.7 7.3z m67.3 -70.1 c2.5 -2.8 2.6 -6.2 0 -8.8 -2.5 -2.5 -4.6 -2.5 -8.7 -0.1 -4.5 2.8 -5.2 5.9 -1.9 8.8 3.4 2.9 7.9 3 10.6 0.1z"/>
  <path d="M1275 372.4 c-1.4 -0.3 -5 -1.7 -8 -3.2 -6.5 -3.3 -11.5 -9.9 -12.5 -16.6 -1.6 -10.2 4.9 -21.2 15.3 -26.3 4.9 -2.4 6.9 -2.8 14.2 -2.8 7.1 0 9.4 0.4 14.1 2.6 l5.7 2.7 7 -20.2 7.1 -20.1 -3.2 -3.3 c-8.3 -8.8 -20.7 -10.7 -28.4 -4.6 -4.2 3.4 -7.6 5.4 -9.2 5.4 -0.5 0 -2.3 -1.2 -4 -2.6 -6.6 -5.5 -2.6 -13.6 9.7 -19.6 6 -3 7.6 -3.3 15.2 -3.3 9.4 0 15.9 2.4 23.2 8.2 l3.7 3 4.4 -4.1 c6.8 -6.5 10.8 -8.1 20.8 -8.1 7.6 0 9 0.3 12.6 2.7 5.5 3.6 9.3 11.3 9.3 18.7 0 13.5 -12 26.1 -24.8 26.1 -1.6 0 -5.5 -1.3 -8.5 -2.9 l-5.5 -2.9 -6.6 19.2 -6.5 19.1 4.6 4.7 c6 6.1 9.7 7.8 16.7 7.8 9.8 0 15.8 -4.4 21.7 -16.1 4.1 -8.2 8.1 -9.9 13.4 -5.8 2.2 1.8 2.6 2.7 2.1 5.2 -1 5.2 -6.8 15.7 -11.5 20.9 -8.2 9.2 -16.3 12.9 -28.1 12.9 -9.2 0 -16.8 -2.5 -22.8 -7.7 l-4.1 -3.5 -3.7 4 c-5.5 6.1 -14.4 10.2 -23.5 10.6 -4.1 0.2 -8.5 0.1 -9.9 -0.1z m12.7 -16.3 c4.4 -2.1 10.6 -9.4 10.1 -12 -0.2 -0.9 -2.1 -2.6 -4.3 -3.9 -8.8 -5.1 -19.6 -0.3 -19.9 8.8 -0.1 3.4 0.4 4.6 2.7 6.6 3.4 2.9 5.8 3 11.4 0.5z m66.5 -70.2 c1.4 -1.8 1.7 -3.3 1.2 -5.2 -1.4 -5.9 -8.6 -5.9 -13.1 0 l-2.7 3.5 2.8 2.5 c3.8 3.2 9.1 2.9 11.8 -0.8z"/>
  <path d="M714.3 368.8 c-3.6 -0.9 -6.3 -4.1 -6.3 -7.4 0 -2.5 31.9 -94.3 34.5 -99.3 2 -3.9 7.4 -6.5 11.6 -5.6 1.6 0.4 3.9 1.9 5.1 3.5 l2.3 2.9 4.7 -1.6 c9.5 -3.1 21.8 0.8 27.3 8.6 2.7 3.9 3 5 3 11.9 0 6.9 -0.7 9.5 -6 24.2 -6.8 18.7 -11.3 26.3 -18.3 31 -10.3 6.8 -21.1 7.5 -30.9 2 l-5.2 -2.9 -1.9 5.2 c-1.1 2.8 -3.1 8.9 -4.6 13.4 -1.5 4.5 -3.6 9.3 -4.7 10.6 -2.5 3.3 -6.6 4.6 -10.6 3.5z m46.3 -45.4 c4.5 -2.2 6.4 -5.6 11.2 -20.4 5.4 -16.6 5.7 -20.6 1.7 -24.5 -4 -4.1 -12 -3 -16.8 2.3 -2.2 2.4 -11.7 30.6 -11.7 34.7 0 3.5 2.5 7 6 8.4 3.6 1.4 5.8 1.3 9.6 -0.5z"/>
  <path d="M906.8 368.8 c-13.8 -1.8 -22.8 -11.2 -22.8 -24 0 -5.4 1.4 -10.5 9.4 -33.9 5.2 -15.2 10.4 -29.5 11.5 -31.8 7 -13.7 22.6 -21.2 37.7 -18.1 10.3 2.1 17.4 7.1 21.3 14.8 3.9 7.6 3.1 12.2 -6.9 41.3 -4.9 14.5 -8.8 26.5 -8.5 26.7 0.3 0.3 2.2 0 4.4 -0.6 4.6 -1.4 9.6 -6.3 12.5 -12.3 5 -10.5 16.9 -6.2 13.5 4.9 -0.6 2.2 -2.8 6.2 -4.8 8.8 -6.7 8.9 -16.1 13.4 -27.8 13.4 -5.8 0 -6.8 0.3 -11.6 3.8 -2.9 2.2 -6.6 4.4 -8.3 5.1 -4.8 1.9 -13.3 2.7 -19.6 1.9z m14 -16.8 c3.3 -2.1 4 -3.4 2.1 -4.6 -2 -1.2 -5 -9.2 -4.3 -11.8 0.3 -1.3 1.9 -3.6 3.5 -5.1 2.2 -2.2 3.8 -2.8 7.2 -2.8 l4.3 0.1 6.7 -20.1 c3.7 -11.1 6.7 -21.6 6.7 -23.2 0 -4.3 -2.4 -7.2 -7 -8.6 -5.1 -1.6 -12 0.9 -15.4 5.4 -1.3 1.8 -7 16.6 -12.6 32.9 -10.9 31.7 -11.1 32.8 -6.5 37.4 3.1 3.1 10.5 3.3 15.3 0.4z"/>
 </g>
</svg>